# xmcd CD database file
#
# Track frame offsets:
#	150
#	4151
#	33886
#	55724
#	84738
#	103656
#	116094
#	131785
#	163405
#	192425
#	214177
#	236702
#	256210
#
# Disc length: 3477 seconds
#
# Revision: 0
# Processed by: cddbd v1.5.2PL0 Copyright (c) Steve Scherf et al.
# Submitted via: CDex 1.70beta2
#
DISCID=b80d930d
DTITLE=CHRISTOPHER L. GRAY - GREAT THINGS!
DYEAR=1900
DGENRE=Rhythmic Soul
TTITLE0=If You Miss Me
TTITLE1=Home
TTITLE2=How I Got Over
TTITLE3=Give Him A Chance
TTITLE4=He Will Make A Way
TTITLE5=Holy Ghost Power
TTITLE6=I Worship
TTITLE7=Great Things!
TTITLE8=No Not One
TTITLE9=What A Friend
TTITLE10=He'S The Same
TTITLE11=Praise The Lord
TTITLE12=If You Miss Me
EXTD=
EXTT0=
EXTT1=
EXTT2=
EXTT3=
EXTT4=
EXTT5=
EXTT6=
EXTT7=
EXTT8=
EXTT9=
EXTT10=
EXTT11=
EXTT12=
PLAYORDER=
